HIERARCHY
ROOT joint_Root
{
	OFFSET 0.0 0.0 0.0
	CHANNELS 6 Xposition Yposition Zposition Zrotation Xrotation Yrotation 
	JOINT Hips
	{
		OFFSET 4.5925 91.4895 -427.239
		CHANNELS 6 Xposition Yposition Zposition Zrotation Xrotation Yrotation 
		JOINT Spine
		{
			OFFSET 15.7357 0.0 0.0
			CHANNELS 6 Xposition Yposition Zposition Zrotation Xrotation Yrotation 
			JOINT Chest
			{
				OFFSET 8.98455 -0.406207 0.0
				CHANNELS 6 Xposition Yposition Zposition Zrotation Xrotation Yrotation 
				JOINT Neck
				{
					OFFSET 16.3773 0.0 0.0
					CHANNELS 6 Xposition Yposition Zposition Zrotation Xrotation Yrotation 
					JOINT Head
					{
						OFFSET 6.45672 0.0 0.0
						CHANNELS 6 Xposition Yposition Zposition Zrotation Xrotation Yrotation 
						End Site
						{
							OFFSET 0.0 0.0 0.0
						}
					}
				}
				JOINT Shoulder_L
				{
					OFFSET 12.9942 -0.242716 4.98039
					CHANNELS 6 Xposition Yposition Zposition Zrotation Xrotation Yrotation 
					JOINT UpperArm_L
					{
						OFFSET 5.34809 0.0 0.0
						CHANNELS 6 Xposition Yposition Zposition Zrotation Xrotation Yrotation 
						JOINT LowerArm_L
						{
							OFFSET 24.3286 1.87007e-05 0.0
							CHANNELS 6 Xposition Yposition Zposition Zrotation Xrotation Yrotation 
							JOINT Hand_L
							{
								OFFSET 22.2916 0.0 0.0
								CHANNELS 6 Xposition Yposition Zposition Zrotation Xrotation Yrotation 
								End Site
								{
									OFFSET 0.0 0.0 0.0
								}
							}
						}
					}
				}
				JOINT Shoulder_R
				{
					OFFSET 12.9945 -0.242716 -4.98039
					CHANNELS 6 Xposition Yposition Zposition Zrotation Xrotation Yrotation 
					JOINT UpperArm_R
					{
						OFFSET -5.34813 0.0 0.0
						CHANNELS 6 Xposition Yposition Zposition Zrotation Xrotation Yrotation 
						JOINT LowerArm_R
						{
							OFFSET -24.3289 0.000322201 0.0
							CHANNELS 6 Xposition Yposition Zposition Zrotation Xrotation Yrotation 
							JOINT Hand_R
							{
								OFFSET -22.2915 -0.000108084 0.0
								CHANNELS 6 Xposition Yposition Zposition Zrotation Xrotation Yrotation 
								End Site
								{
									OFFSET 0.0 0.0 0.0
								}
							}
						}
					}
				}
			}
		}
		JOINT UpperLeg_L
		{
			OFFSET -2.19248 -6.46944 0.0
			CHANNELS 6 Xposition Yposition Zposition Zrotation Xrotation Yrotation 
			JOINT LowerLeg_L
			{
				OFFSET 39.0811 0.0 -1.23785e-05
				CHANNELS 6 Xposition Yposition Zposition Zrotation Xrotation Yrotation 
				JOINT Foot_L
				{
					OFFSET 40.9854 0.0 -1.26872e-05
					CHANNELS 6 Xposition Yposition Zposition Zrotation Xrotation Yrotation 
					JOINT Toes_L
					{
						OFFSET 11.7543 0.0 0.0
						CHANNELS 6 Xposition Yposition Zposition Zrotation Xrotation Yrotation 
						End Site
						{
							OFFSET 0.0 0.0 0.0
						}
					}
				}
			}
		}
		JOINT UpperLeg_R
		{
			OFFSET -2.19251 6.46944 0.0
			CHANNELS 6 Xposition Yposition Zposition Zrotation Xrotation Yrotation 
			JOINT LowerLeg_R
			{
				OFFSET -39.0811 -0.00228153 -0.0401928
				CHANNELS 6 Xposition Yposition Zposition Zrotation Xrotation Yrotation 
				JOINT Foot_R
				{
					OFFSET -40.9854 0.0 0.0
					CHANNELS 6 Xposition Yposition Zposition Zrotation Xrotation Yrotation 
					JOINT Toes_R
					{
						OFFSET -11.7543 0.0 0.0
						CHANNELS 6 Xposition Yposition Zposition Zrotation Xrotation Yrotation 
						End Site
						{
							OFFSET 0.0 0.0 0.0
						}
					}
				}
			}
		}
	}
}
MOTION
Frames:	4
Frame Time:	0.0333333
0.000000 0.000000 0.000000 0.000000 0.000000 -0.000000 0.647330 91.488400 1.962580 89.668200 -2.634520 2.612640 15.735700 0.000005 -0.000001 81.056300 87.860400 -81.337400 8.984550 -0.406207 -0.000000 -3.540380 -0.637186 -0.582088 16.377300 -0.000001 -0.000001 4.007230 -3.424720 2.308700 6.456720 -0.000001 -0.000000 -4.403250 -3.151300 1.311430 12.994200 -0.242716 4.980390 -82.819100 -13.971400 -62.442800 5.348090 -0.000007 -0.000001 -47.878200 -59.377300 -97.740400 24.328600 0.000019 0.000005 21.839900 17.679600 -52.846800 22.291600 -0.000001 0.000005 29.845700 5.464330 -5.159590 12.994500 -0.242716 -4.980390 95.115500 -12.758500 -67.934100 -5.348130 -0.000001 -0.000004 -44.028800 -58.203600 -94.076500 -24.328900 0.000322 -0.000009 6.982990 6.085970 -49.126200 -22.291500 -0.000108 -0.000004 24.870800 5.637220 -13.897500 -2.192480 -6.469440 -0.000000 -176.983000 -12.781000 -3.486000 39.081100 -0.000007 -0.000012 -0.151680 0.315910 25.647500 40.985400 -0.000006 -0.000013 0.436675 4.582130 -69.544200 11.754300 -0.000000 0.000003 -0.000245 -0.002196 -16.659900 -2.192510 6.469440 -0.000001 175.143000 21.233200 178.311000 -39.081100 -0.002282 -0.040193 0.012095 -0.018761 25.085700 -40.985400 0.000008 0.000006 6.150560 13.681400 -71.114600 -11.754300 -0.000006 -0.000006 -0.000664 -0.010507 -17.000600
0.000000 0.000000 0.000000 0.000000 0.000000 -0.000000 0.607082 91.508200 1.815650 89.614900 -2.754780 2.581490 15.735700 0.000005 -0.000001 80.864200 87.790800 -81.115600 8.984550 -0.406207 -0.000000 -3.405150 -0.676680 -0.523060 16.377300 -0.000001 -0.000001 4.060830 -3.446110 2.340590 6.456720 -0.000001 -0.000000 -4.146470 -2.998630 1.273680 12.994200 -0.242716 4.980390 -83.195300 -13.211400 -62.430200 5.348090 -0.000007 -0.000001 -45.948900 -58.981500 -94.410300 24.328600 0.000019 0.000005 22.126200 16.329100 -55.336500 22.291600 -0.000001 0.000005 29.001200 5.454410 -4.797050 12.994500 -0.242716 -4.980390 94.925600 -12.298200 -67.971600 -5.348130 -0.000001 -0.000004 -42.992500 -57.537200 -91.918000 -24.328900 0.000322 -0.000009 6.234610 5.099120 -50.876700 -22.291500 -0.000108 -0.000004 25.142600 5.630310 -13.361400 -2.192480 -6.469440 -0.000000 -176.925000 -12.929300 -3.606720 39.081100 -0.000007 -0.000012 -0.146723 0.305505 25.653500 40.985400 -0.000006 -0.000013 0.429016 4.604580 -69.450400 11.754300 -0.000000 0.000003 -0.000240 -0.002158 -16.658500 -2.192510 6.469440 -0.000001 175.247000 21.299700 178.210000 -39.081100 -0.002282 -0.040193 0.011315 -0.017169 24.992900 -40.985400 0.000008 0.000006 6.134640 13.884900 -71.012600 -11.754300 -0.000006 -0.000006 -0.000692 -0.010924 -17.017500
0.000000 0.000000 0.000000 0.000000 0.000000 -0.000000 0.569698 91.510500 1.693980 89.610900 -2.908150 2.649250 15.735700 0.000005 -0.000001 80.868000 87.702000 -81.097300 8.984550 -0.406207 -0.000000 -3.229860 -0.707079 -0.478650 16.377300 -0.000001 -0.000001 4.154860 -3.423490 2.291070 6.456720 -0.000001 -0.000000 -3.856380 -2.871540 1.317010 12.994200 -0.242716 4.980390 -83.673200 -12.353800 -62.605300 5.348090 -0.000007 -0.000001 -43.205800 -57.955800 -89.070500 24.328600 0.000019 0.000005 23.815200 14.672200 -60.148600 22.291600 -0.000001 0.000005 28.568000 5.443440 -4.407350 12.994500 -0.242716 -4.980390 94.620600 -11.585100 -68.078000 -5.348130 -0.000001 -0.000004 -42.097300 -55.872500 -89.227600 -24.328900 0.000322 -0.000009 5.030370 3.698930 -53.775400 -22.291500 -0.000108 -0.000004 25.366300 5.618460 -12.515600 -2.192480 -6.469440 -0.000000 -176.886000 -13.010400 -3.649570 39.081100 -0.000007 -0.000012 -0.150457 0.312340 25.720800 40.985400 -0.000006 -0.000013 0.394791 4.554460 -69.394700 11.754300 -0.000000 0.000003 -0.000224 -0.002040 -16.654200 -2.192510 6.469440 -0.000001 175.282000 21.282700 178.202000 -39.081100 -0.002282 -0.040193 0.012310 -0.019318 24.974300 -40.985400 0.000008 0.000006 6.307590 13.987800 -71.093100 -11.754300 -0.000006 -0.000006 -0.000657 -0.010403 -16.996400
0.000000 0.000000 0.000000 0.000000 0.000000 -0.000000 0.525789 91.507500 1.589850 89.587700 -3.106200 2.818250 15.735700 0.000005 -0.000001 81.194200 87.598900 -81.385300 8.984550 -0.406207 -0.000000 -3.021650 -0.716876 -0.401183 16.377300 -0.000001 -0.000001 4.255800 -3.437480 2.215400 6.456720 -0.000001 -0.000000 -3.547570 -2.852810 1.305310 12.994200 -0.242716 4.980390 -84.252800 -11.406800 -63.028900 5.348090 -0.000007 -0.000001 -39.520400 -55.996500 -81.461300 24.328600 0.000019 0.000005 26.126600 11.975700 -67.068000 22.291600 -0.000001 0.000005 29.104600 5.430470 -3.956860 12.994500 -0.242716 -4.980390 94.207700 -10.626800 -68.250400 -5.348130 -0.000001 -0.000004 -41.758000 -52.980800 -86.042800 -24.328900 0.000322 -0.000009 3.524020 2.191560 -58.184400 -22.291500 -0.000108 -0.000004 25.444200 5.607910 -11.826000 -2.192480 -6.469440 -0.000000 -176.805000 -13.133400 -3.565440 39.081100 -0.000007 -0.000012 -0.147427 0.304881 25.806600 40.985400 -0.000006 -0.000013 0.361439 4.498830 -69.377200 11.754300 -0.000000 0.000003 -0.000240 -0.002160 -16.658600 -2.192510 6.469440 -0.000001 175.308000 21.158200 178.243000 -39.081100 -0.002282 -0.040193 0.011793 -0.018146 25.049400 -40.985400 0.000008 0.000006 6.333610 14.064500 -71.081200 -11.754300 -0.000006 -0.000006 -0.000522 -0.008370 -16.913800
